<svg width="80" height="80" viewBox="0 0 80 80" fill="none" xmlns="http://www.w3.org/2000/svg">
<rect width="80" height="80" rx="6" fill="#7CD19E"/>
<g clip-path="url(#clip0_207_1621)">
<mask id="mask0_207_1621" style="mask-type:luminance" maskUnits="userSpaceOnUse" x="15" y="15" width="50" height="50">
<path d="M15 15H65V65H15V15Z" fill="white"/>
</mask>
<g mask="url(#mask0_207_1621)">
<path d="M16.4648 36.3803L27.7609 41.9297L38.8131 33.6399L50.0197 36.4423L63.5352 22.9258" stroke="white" stroke-width="2" stroke-miterlimit="10"/>
<path d="M51.8164 45.8594L40.0977 42.9297L28.3789 51.7188L16.4648 45.8594V63.5352H63.5352V34.1406L51.8164 45.8594Z" stroke="white" stroke-width="2" stroke-miterlimit="10"/>
<path d="M57.6758 22.4219H63.5352V28.2812" stroke="white" stroke-width="2" stroke-miterlimit="10"/>
<path d="M25.4492 28.2812C25.4492 29.8993 26.7609 31.2109 28.3789 31.2109C29.9969 31.2109 31.3086 29.8993 31.3086 28.2812C31.3086 26.6632 29.9969 25.3516 28.3789 25.3516C26.7609 25.3516 25.4492 24.0399 25.4492 22.4219C25.4492 20.8038 26.7609 19.4922 28.3789 19.4922C29.9969 19.4922 31.3086 20.8038 31.3086 22.4219" stroke="white" stroke-width="2" stroke-miterlimit="10"/>
<path d="M28.3789 15.0001V19.4922" stroke="white" stroke-width="2" stroke-miterlimit="10"/>
<path d="M28.3789 31.2109V35.6055" stroke="white" stroke-width="2" stroke-miterlimit="10"/>
<path d="M28.3789 63.5352V51.7188" stroke="white" stroke-width="2" stroke-miterlimit="10"/>
<path d="M40.0977 63.5352V42.9297" stroke="white" stroke-width="2" stroke-miterlimit="10"/>
<path d="M51.8164 63.5352V45.8594" stroke="white" stroke-width="2" stroke-miterlimit="10"/>
</g>
</g>
<defs>
<clipPath id="clip0_207_1621">
<rect width="50" height="50" fill="white" transform="translate(15 15)"/>
</clipPath>
</defs>
</svg>
