<svg width="30" height="30" viewBox="0 0 30 30" fill="none" xmlns="http://www.w3.org/2000/svg">
<mask id="mask0_113_664" style="mask-type:luminance" maskUnits="userSpaceOnUse" x="0" y="0" width="30" height="30">
<path d="M29 29V1H1V29H29Z" fill="white" stroke="white" stroke-width="2"/>
</mask>
<g mask="url(#mask0_113_664)">
<path d="M14.987 3.34629H15.0424C15.2494 2.76639 16.1259 0.89496 18.0631 0.879022C19.7359 0.865311 21.0591 2.35629 21.1271 4.02779C21.2315 6.59156 18.6696 8.29277 14.987 11.4844C11.3042 8.29271 8.74247 6.59156 8.84683 4.02785C8.91479 2.35629 10.2966 0.865311 11.9694 0.879022C13.9066 0.894901 14.7245 2.76639 14.9316 3.34629H14.987Z" stroke="#74B9F9" stroke-width="2" stroke-miterlimit="10"/>
<path d="M15 27.3633V21.0018M15 21.0018C15 20.0694 14.6296 19.1752 13.9703 18.5159L9.15299 13.7572C8.46633 13.0705 7.35398 13.0705 6.66732 13.7572C5.98066 14.4438 5.98066 15.5562 6.66732 16.2428L9.66797 19.2435L4.90939 14.4848C4.57975 14.1553 4.39453 13.7081 4.39453 13.242V7.96875C4.39453 6.99797 3.6075 6.21094 2.63672 6.21094C1.66594 6.21094 0.878906 6.99797 0.878906 7.96875V15.784C0.878906 16.4212 1.05205 17.0464 1.37994 17.5928L8.28803 24.7119C8.61592 25.2582 8.78906 25.8835 8.78906 26.5206V29.1211H15V21.0018Z" stroke="#74B9F9" stroke-width="2" stroke-miterlimit="10"/>
<path d="M15 27.3633V21.0018M15 21.0018C15 20.0694 15.3704 19.1752 16.0297 18.5159L20.847 13.7572C21.5337 13.0705 22.646 13.0705 23.3327 13.7572C24.0193 14.4438 24.0193 15.5562 23.3327 16.2428L20.332 19.2435L25.0906 14.4848C25.4203 14.1553 25.6055 13.7081 25.6055 13.242V7.96875C25.6055 6.99797 26.3925 6.21094 27.3633 6.21094C28.3341 6.21094 29.1211 6.99797 29.1211 7.96875V15.784C29.1211 16.4212 28.9479 17.0464 28.6201 17.5928L21.712 24.7119C21.3841 25.2582 21.2109 25.8835 21.2109 26.5206V29.1211H15V21.0018Z" stroke="#74B9F9" stroke-width="2" stroke-miterlimit="10"/>
</g>
</svg>
