<svg width="30" height="30" viewBox="0 0 30 30" fill="none" xmlns="http://www.w3.org/2000/svg">
<mask id="mask0_113_695" style="mask-type:luminance" maskUnits="userSpaceOnUse" x="0" y="0" width="30" height="30">
<path d="M29 29V1H1V29H29Z" fill="white" stroke="white" stroke-width="2"/>
</mask>
<g mask="url(#mask0_113_695)">
<path d="M11.4648 15.5V11.9989C11.4648 11.0321 12.2253 10.2174 13.191 10.195C13.2051 10.1944 13.2192 10.1944 13.2334 10.1944" stroke="#74B9F9" stroke-width="2" stroke-miterlimit="10" stroke-linecap="round" stroke-linejoin="round"/>
<path d="M12.6951 24.1484L13.8556 22.1004C14.6066 20.8671 15.0034 19.4512 15.0034 18.0068V11.9614C15.0034 11.4733 14.8053 11.0311 14.4852 10.711C14.1651 10.391 13.7229 10.1929 13.2348 10.1929L14.6502 2.73911C14.8336 1.77231 14.0926 0.877406 13.1087 0.877406C12.8068 0.877406 12.518 0.964066 12.2727 1.1191C12.0269 1.27356 11.8241 1.49639 11.6938 1.76879L8.60834 8.21569C8.1615 9.15002 7.92924 10.1728 7.92924 11.2086V15.627C7.92924 17.0724 7.50244 18.4849 6.70305 19.6887L6.0625 20.8472" stroke="#74B9F9" stroke-width="2" stroke-miterlimit="10" stroke-linecap="round" stroke-linejoin="round"/>
<path d="M11.2941 29.1211L2.55469 24.7712L4.81535 20.2292L13.5547 24.5791L11.2941 29.1211Z" stroke="#74B9F9" stroke-width="2" stroke-miterlimit="10" stroke-linecap="round" stroke-linejoin="round"/>
<path d="M16.7695 10.1944C16.7837 10.1944 16.7978 10.1944 16.812 10.195C17.7776 10.2174 18.5381 11.0321 18.5381 11.9989V15.5" stroke="#74B9F9" stroke-width="2" stroke-miterlimit="10" stroke-linecap="round" stroke-linejoin="round"/>
<path d="M23.9409 20.8472L23.3003 19.6888C22.5009 18.4849 22.0741 17.0725 22.0741 15.627V11.2086C22.0741 10.1728 21.8419 9.15002 21.395 8.21569L18.3096 1.76879C18.1792 1.49645 17.9764 1.27356 17.7306 1.11916C17.4854 0.964125 17.1965 0.877465 16.8947 0.877465C15.9108 0.877465 15.1698 1.77231 15.3531 2.7391L16.7685 10.1929C16.2804 10.1929 15.8383 10.391 15.5182 10.7111C15.1981 11.0312 15 11.4733 15 11.9614V18.0068C15 19.4512 15.3968 20.8671 16.1478 22.1004L17.3083 24.1484" stroke="#74B9F9" stroke-width="2" stroke-miterlimit="10" stroke-linecap="round" stroke-linejoin="round"/>
<path d="M18.7099 29.1211L27.4493 24.7712L25.1886 20.2292L16.4492 24.5791L18.7099 29.1211Z" stroke="#74B9F9" stroke-width="2" stroke-miterlimit="10" stroke-linecap="round" stroke-linejoin="round"/>
</g>
</svg>