<svg width="30" height="30" viewBox="0 0 30 30" fill="none" xmlns="http://www.w3.org/2000/svg">
<mask id="mask0_113_593" style="mask-type:luminance" maskUnits="userSpaceOnUse" x="0" y="0" width="30" height="30">
<path d="M29 29V1H1V29H29Z" fill="white" stroke="white" stroke-width="2"/>
</mask>
<g mask="url(#mask0_113_593)">
<path d="M23.2617 18.336L27.0949 14.7111C29.7863 12.0196 29.7863 7.65598 27.0949 4.96453C24.4034 2.27309 20.0398 2.27309 17.3483 4.96453L11.9198 10.2387C11.006 11.1229 10.994 12.5844 11.8932 13.4835V13.4835C12.7819 14.3723 14.223 14.3723 15.1117 13.4835L16.0835 12.5118C16.4573 12.1379 17.0636 12.1379 17.4374 12.5118L23.4705 18.5449C24.201 19.2754 24.201 20.4598 23.4705 21.1904C22.74 21.9209 21.5556 21.9209 20.825 21.1904" stroke="#74B9F9" stroke-width="2" stroke-miterlimit="10" stroke-linecap="round" stroke-linejoin="round"/>
<path d="M16.25 22.2977L17.8874 23.9351C18.6719 24.7196 19.9436 24.7196 20.7281 23.9351C21.5125 23.1507 21.5125 21.8789 20.7281 21.0944L19.082 19.4483" stroke="#74B9F9" stroke-width="2" stroke-miterlimit="10" stroke-linecap="round" stroke-linejoin="round"/>
<path d="M15.365 6.86635L13.2623 4.76371C10.4313 1.93264 5.84116 1.93264 3.01002 4.76371C0.17895 7.59484 0.17895 12.185 3.01002 15.016L3.78305 15.7891" stroke="#74B9F9" stroke-width="2" stroke-miterlimit="10" stroke-linecap="round" stroke-linejoin="round"/>
<path d="M8.74337 25.3908L8.76933 25.4167C9.56779 26.2153 10.8624 26.2153 11.6609 25.4167L12.7071 24.3705C13.5056 23.572 13.5056 22.2774 12.7071 21.4789L12.6812 21.453C11.8827 20.6545 10.5881 20.6545 9.78962 21.453L8.74337 22.4992C7.94492 23.2978 7.94492 24.5924 8.74337 25.3908Z" stroke="#74B9F9" stroke-width="2" stroke-miterlimit="10" stroke-linecap="round" stroke-linejoin="round"/>
<path d="M5.78244 22.5158L5.80833 22.5417C6.60685 23.3403 7.90142 23.3403 8.69988 22.5417L11.338 19.9037C12.1365 19.1052 12.1365 17.8106 11.338 17.0121L11.312 16.9862C10.5136 16.1877 9.21896 16.1877 8.4205 16.9862L5.78244 19.6242C4.98398 20.4228 4.98398 21.7174 5.78244 22.5158Z" stroke="#74B9F9" stroke-width="2" stroke-miterlimit="10" stroke-linecap="round" stroke-linejoin="round"/>
<path d="M2.86447 19.5979L2.89037 19.6238C3.68888 20.4223 4.98351 20.4223 5.78197 19.6238L7.39587 18.0099C8.19439 17.2114 8.19439 15.9168 7.39587 15.1183L7.36997 15.0924C6.57146 14.2939 5.27689 14.2939 4.47837 15.0924L2.86447 16.7063C2.06601 17.5048 2.06601 18.7994 2.86447 19.5979Z" stroke="#74B9F9" stroke-width="2" stroke-miterlimit="10" stroke-linecap="round" stroke-linejoin="round"/>
<path d="M12.6758 24.4065L15.0443 26.775C15.8287 27.5594 17.1005 27.5594 17.8849 26.775C18.6694 25.9905 18.6694 24.7187 17.8849 23.9342" stroke="#74B9F9" stroke-width="2" stroke-miterlimit="10" stroke-linecap="round" stroke-linejoin="round"/>
</g>
</svg>
