<svg width="34" height="34" viewBox="0 0 34 34" fill="none" xmlns="http://www.w3.org/2000/svg">
<mask id="mask0_153_1099" style="mask-type:luminance" maskUnits="userSpaceOnUse" x="0" y="0" width="34" height="34">
<path d="M33 33V1H1V33H33Z" fill="white" stroke="white" stroke-width="2"/>
</mask>
<g mask="url(#mask0_153_1099)">
<path d="M25.184 16.408C26.0173 15.5748 26.0173 14.2235 25.184 13.3902C24.3507 12.5569 22.9995 12.5569 22.1662 13.3902C21.245 14.312 20.0702 15.4862 19.1484 16.408C18.3151 17.2413 18.3151 18.5925 19.1484 19.4258C19.9822 20.2591 21.333 20.2591 22.1662 19.4258C23.0881 18.504 24.2627 17.3298 25.184 16.408Z" stroke="#74B9F9" stroke-width="2" stroke-miterlimit="10" stroke-linecap="round" stroke-linejoin="round"/>
<path d="M27.4492 20.178C28.2825 19.3447 28.2825 17.9935 27.4492 17.1602C26.6159 16.3269 25.2647 16.3269 24.4314 17.1602C23.7219 17.8697 22.8774 18.7142 22.1679 19.4237C21.3347 20.257 21.3347 21.6077 22.1679 22.4415C23.0012 23.2747 24.3524 23.2747 25.1857 22.4415C25.8952 21.7314 26.7397 20.8875 27.4492 20.178Z" stroke="#74B9F9" stroke-width="2" stroke-miterlimit="10" stroke-linecap="round" stroke-linejoin="round"/>
<path d="M29.7136 23.9521C30.1142 23.552 30.3388 23.0089 30.3388 22.4435C30.3388 21.8774 30.1142 21.3344 29.7136 20.9343C29.3135 20.5342 28.771 20.3096 28.2049 20.3096C27.639 20.3096 27.0964 20.5342 26.6963 20.9343C26.2103 21.4198 25.6725 21.9575 25.1871 22.4435C24.787 22.8436 24.5625 23.3861 24.5625 23.9521C24.5625 24.5181 24.787 25.0606 25.1871 25.4607C25.5872 25.8614 26.1303 26.0859 26.6963 26.0859C27.2618 26.0859 27.8049 25.8614 28.2049 25.4607C28.6904 24.9753 29.2281 24.4375 29.7136 23.9521Z" stroke="#74B9F9" stroke-width="2" stroke-miterlimit="10" stroke-linecap="round" stroke-linejoin="round"/>
<path d="M22.1678 13.3884C22.1678 13.3884 25.4486 10.1082 27.4491 8.10768C27.8492 7.70705 28.0738 7.16451 28.0738 6.59853C28.0738 6.03255 27.8492 5.49001 27.4491 5.08991C27.049 4.68975 26.5059 4.4647 25.9399 4.4647C25.3739 4.4647 24.8313 4.68975 24.4313 5.08991L13.1149 16.4063C13.1149 16.4063 12.6385 14.3434 12.1232 12.1092C11.8672 10.9991 11.0285 10.1151 9.93281 9.8009C8.83764 9.48667 7.65813 9.7918 6.85256 10.5979C6.85203 10.5979 6.85203 10.5984 6.85203 10.5984L6.86484 23.4016L3.66406 26.6023L10.0656 33.0039H19.3335C20.1823 33.0039 20.9963 32.6662 21.5964 32.0661C23.9117 29.7514 29.712 23.9505 29.712 23.9505" stroke="#74B9F9" stroke-width="2" stroke-miterlimit="10" stroke-linecap="round" stroke-linejoin="round"/>
<path d="M13.1133 16.4046C13.1133 16.4046 13.4174 16.7087 13.8676 17.1589C15.9508 19.2421 15.9508 22.62 13.8676 24.7031" stroke="#74B9F9" stroke-width="2" stroke-miterlimit="10" stroke-linecap="round" stroke-linejoin="round"/>
<path d="M13.2656 5.26562V0.997895" stroke="#74B9F9" stroke-width="2" stroke-miterlimit="10" stroke-linecap="round" stroke-linejoin="round"/>
<path d="M9.00048 5.26562L7.93359 4.19874" stroke="#74B9F9" stroke-width="2" stroke-miterlimit="10" stroke-linecap="round" stroke-linejoin="round"/>
<path d="M17.5352 5.26562L18.602 4.19874" stroke="#74B9F9" stroke-width="2" stroke-miterlimit="10" stroke-linecap="round" stroke-linejoin="round"/>
</g>
</svg>
