<svg width="34" height="34" viewBox="0 0 34 34" fill="none" xmlns="http://www.w3.org/2000/svg">
<path d="M16.9982 21.9496C18.7965 21.9496 20.2543 20.4918 20.2543 18.6935C20.2543 16.8953 18.7965 15.4375 16.9982 15.4375C15.2 15.4375 13.7422 16.8953 13.7422 18.6935C13.7422 20.4918 15.2 21.9496 16.9982 21.9496Z" stroke="#74B9F9" stroke-width="2" stroke-miterlimit="10" stroke-linecap="round" stroke-linejoin="round"/>
<path d="M32.9995 18.694C32.9995 18.694 25.8362 28.1576 16.9997 28.1576C8.1633 28.1576 1 18.694 1 18.694C1 18.694 8.16337 9.23047 16.9998 9.23047C25.8362 9.23047 32.9995 18.694 32.9995 18.694Z" stroke="#74B9F9" stroke-width="2" stroke-miterlimit="10" stroke-linecap="round" stroke-linejoin="round"/>
<path d="M16.9987 28.1576C22.2253 28.1576 26.4623 23.9206 26.4623 18.694C26.4623 13.4675 22.2253 9.23047 16.9987 9.23047C11.7721 9.23047 7.53516 13.4675 7.53516 18.694C7.53516 23.9206 11.7721 28.1576 16.9987 28.1576Z" stroke="#74B9F9" stroke-width="2" stroke-miterlimit="10" stroke-linecap="round" stroke-linejoin="round"/>
<path d="M9.6048 11.299L7.91406 8.94141" stroke="#74B9F9" stroke-width="2" stroke-miterlimit="10" stroke-linecap="round" stroke-linejoin="round"/>
<path d="M24.3984 11.299L26.0892 8.94141" stroke="#74B9F9" stroke-width="2" stroke-miterlimit="10" stroke-linecap="round" stroke-linejoin="round"/>
<path d="M17 9.17787V5.84375" stroke="#74B9F9" stroke-width="2" stroke-miterlimit="10" stroke-linecap="round" stroke-linejoin="round"/>
</svg>
