<svg width="34" height="34" viewBox="0 0 34 34" fill="none" xmlns="http://www.w3.org/2000/svg">
<g clip-path="url(#clip0_156_672)">
<mask id="mask0_156_672" style="mask-type:luminance" maskUnits="userSpaceOnUse" x="0" y="0" width="34" height="34">
<path d="M0 3.8147e-06H34V34H0V3.8147e-06Z" fill="white"/>
</mask>
<g mask="url(#mask0_156_672)">
<path d="M19.6127 13.7483C19.0958 13.5601 18.8292 12.9885 19.0174 12.4715C19.2056 11.9546 19.7772 11.6881 20.2941 11.8762C20.8111 12.0644 21.0776 12.636 20.8894 13.1529C20.7013 13.6698 20.1297 13.9364 19.6127 13.7483Z" fill="#74B9F9"/>
<path d="M8.38222 9.65842C7.86532 9.47029 7.59876 8.89867 7.78689 8.3817C7.97502 7.86472 8.54671 7.59823 9.06362 7.78636C9.58059 7.97456 9.84714 8.54612 9.65895 9.06309C9.47082 9.58 8.8992 9.84655 8.38222 9.65842Z" fill="#74B9F9"/>
<path d="M25.2326 15.7849L27.6152 9.23856C24.4121 6.69653 20.4708 5.26203 16.383 5.15033C12.2952 5.03863 8.35391 3.53772 5.15073 0.99569L0.996094 12.2944C4.19933 14.8364 8.20701 16.2709 12.2948 16.3826C14.3999 16.4401 16.466 16.8485 18.4127 17.5781" stroke="#74B9F9" stroke-width="2" stroke-miterlimit="10" stroke-linecap="round" stroke-linejoin="round"/>
<path d="M16.2124 11.4465C15.8361 12.4803 14.6929 13.0134 13.659 12.6371C12.6251 12.2609 12.0921 11.1176 12.4683 10.0837C12.8446 9.04986 13.9879 8.51675 15.0218 8.89307C16.0557 9.26933 16.5888 10.4126 16.2124 11.4465Z" stroke="#74B9F9" stroke-width="2" stroke-miterlimit="10" stroke-linecap="round" stroke-linejoin="round"/>
<path d="M14.384 26.2131C14.9009 26.025 15.1674 25.4533 14.9793 24.9364C14.7911 24.4195 14.2195 24.1529 13.7026 24.341C13.1856 24.5292 12.919 25.1008 13.1072 25.6178C13.2954 26.1347 13.867 26.4012 14.384 26.2131Z" fill="#74B9F9"/>
<path d="M25.6183 22.1233C26.1352 21.9351 26.4018 21.3635 26.2137 20.8465C26.0255 20.3296 25.4539 20.0631 24.9369 20.2512C24.42 20.4394 24.1534 21.011 24.3416 21.5279C24.5297 22.0448 25.1014 22.3114 25.6183 22.1233Z" fill="#74B9F9"/>
<path d="M6.38672 21.7052C9.58989 19.1632 13.5312 17.7287 17.619 17.617C21.7067 17.5053 25.648 16.0708 28.8512 13.5288L33.0059 24.761C29.8026 27.3031 25.7949 28.7376 21.7072 28.8493C17.6193 28.961 13.6781 30.4619 10.4749 33.0039L6.38672 21.7052Z" stroke="#74B9F9" stroke-width="2" stroke-miterlimit="10" stroke-linecap="round" stroke-linejoin="round"/>
<path d="M17.7887 23.9152C18.165 24.9491 19.3082 25.4822 20.3421 25.1059C21.376 24.7296 21.909 23.5864 21.5328 22.5525C21.1565 21.5186 20.0132 20.9855 18.9793 21.3618C17.9454 21.7381 17.4123 22.8813 17.7887 23.9152Z" stroke="#74B9F9" stroke-width="2" stroke-miterlimit="10" stroke-linecap="round" stroke-linejoin="round"/>
</g>
</g>
<defs>
<clipPath id="clip0_156_672">
<rect width="34" height="34" fill="white"/>
</clipPath>
</defs>
</svg>
