<svg width="34" height="34" viewBox="0 0 34 34" fill="none" xmlns="http://www.w3.org/2000/svg">
<mask id="mask0_153_1078" style="mask-type:luminance" maskUnits="userSpaceOnUse" x="0" y="0" width="34" height="34">
<path d="M33 33V1H1V33H33Z" fill="white" stroke="white" stroke-width="2"/>
</mask>
<g mask="url(#mask0_153_1078)">
<path d="M12.9922 17.5664V13.5985C12.9922 12.5028 13.8541 11.5795 14.9484 11.5541C14.9645 11.5534 14.9805 11.5534 14.9966 11.5534" stroke="#74B9F9" stroke-width="2" stroke-miterlimit="10" stroke-linecap="round" stroke-linejoin="round"/>
<path d="M14.388 27.3672L15.7033 25.046C16.5544 23.6484 17.0041 22.0436 17.0041 20.4067V13.5552C17.0041 13.002 16.7796 12.5009 16.4168 12.1381C16.054 11.7754 15.5529 11.5509 14.9998 11.5509L16.6039 3.10328C16.8116 2.00758 15.9719 0.993354 14.8568 0.993354C14.5147 0.993354 14.1873 1.09157 13.9094 1.26728C13.6308 1.44233 13.401 1.69487 13.2533 2.00359L9.75638 9.31007C9.24996 10.369 8.98673 11.5282 8.98673 12.702V17.7095C8.98673 19.3477 8.50303 20.9486 7.59705 22.3128L6.87109 23.6258" stroke="#74B9F9" stroke-width="2" stroke-miterlimit="10" stroke-linecap="round" stroke-linejoin="round"/>
<path d="M12.7992 33.0039L2.89453 28.074L5.45662 22.9264L15.3612 27.8563L12.7992 33.0039Z" stroke="#74B9F9" stroke-width="2" stroke-miterlimit="10" stroke-linecap="round" stroke-linejoin="round"/>
<path d="M19.0039 11.5534C19.02 11.5534 19.036 11.5534 19.0521 11.5541C20.1464 11.5795 21.0083 12.5028 21.0083 13.5985V17.5664" stroke="#74B9F9" stroke-width="2" stroke-miterlimit="10" stroke-linecap="round" stroke-linejoin="round"/>
<path d="M27.133 23.6258L26.407 22.3129C25.5011 20.9486 25.0174 19.3478 25.0174 17.7095V12.702C25.0174 11.5282 24.7541 10.369 24.2477 9.31007L20.7508 2.00359C20.6031 1.69493 20.3733 1.44232 20.0947 1.26734C19.8168 1.09163 19.4894 0.993418 19.1473 0.993418C18.0322 0.993418 17.1924 2.00757 17.4002 3.10328L19.0043 11.5509C18.4512 11.5509 17.9501 11.7754 17.5873 12.1382C17.2245 12.501 17 13.0021 17 13.5552V20.4067C17 22.0436 17.4497 23.6484 18.3008 25.0461L19.6161 27.3672" stroke="#74B9F9" stroke-width="2" stroke-miterlimit="10" stroke-linecap="round" stroke-linejoin="round"/>
<path d="M21.2027 33.0039L31.1073 28.074L28.5453 22.9264L18.6406 27.8563L21.2027 33.0039Z" stroke="#74B9F9" stroke-width="2" stroke-miterlimit="10" stroke-linecap="round" stroke-linejoin="round"/>
</g>
</svg>
