<svg width="300" height="215" viewBox="0 0 300 215" fill="none" xmlns="http://www.w3.org/2000/svg">
<rect width="300" height="215" rx="4" fill="white"/>
<path d="M47.38 84.7C51.22 81.38 54.24 78.66 56.44 76.54C58.68 74.38 60.54 72.14 62.02 69.82C63.5 67.5 64.24 65.18 64.24 62.86C64.24 60.46 63.66 58.58 62.5 57.22C61.38 55.86 59.6 55.18 57.16 55.18C54.8 55.18 52.96 55.94 51.64 57.46C50.36 58.94 49.68 60.94 49.6 63.46H43C43.12 58.9 44.48 55.42 47.08 53.02C49.72 50.58 53.06 49.36 57.1 49.36C61.46 49.36 64.86 50.56 67.3 52.96C69.78 55.36 71.02 58.56 71.02 62.56C71.02 65.44 70.28 68.22 68.8 70.9C67.36 73.54 65.62 75.92 63.58 78.04C61.58 80.12 59.02 82.54 55.9 85.3L53.2 87.7H72.22V93.4H43.06V88.42L47.38 84.7ZM75.8289 71.56C75.8289 64.64 76.9889 59.24 79.3089 55.36C81.6689 51.44 85.7089 49.48 91.4289 49.48C97.1489 49.48 101.169 51.44 103.489 55.36C105.849 59.24 107.029 64.64 107.029 71.56C107.029 78.56 105.849 84.04 103.489 88C101.169 91.92 97.1489 93.88 91.4289 93.88C85.7089 93.88 81.6689 91.92 79.3089 88C76.9889 84.04 75.8289 78.56 75.8289 71.56ZM100.309 71.56C100.309 68.32 100.089 65.58 99.6489 63.34C99.2489 61.1 98.4089 59.28 97.1289 57.88C95.8489 56.44 93.9489 55.72 91.4289 55.72C88.9089 55.72 87.0089 56.44 85.7289 57.88C84.4489 59.28 83.5889 61.1 83.1489 63.34C82.7489 65.58 82.5489 68.32 82.5489 71.56C82.5489 74.92 82.7489 77.74 83.1489 80.02C83.5489 82.3 84.3889 84.14 85.6689 85.54C86.9889 86.94 88.9089 87.64 91.4289 87.64C93.9489 87.64 95.8489 86.94 97.1289 85.54C98.4489 84.14 99.3089 82.3 99.7089 80.02C100.109 77.74 100.309 74.92 100.309 71.56ZM110.786 60.82C110.786 57.9 111.626 55.62 113.306 53.98C115.026 52.3 117.226 51.46 119.906 51.46C122.586 51.46 124.766 52.3 126.446 53.98C128.166 55.62 129.026 57.9 129.026 60.82C129.026 63.74 128.166 66.04 126.446 67.72C124.766 69.4 122.586 70.24 119.906 70.24C117.226 70.24 115.026 69.4 113.306 67.72C111.626 66.04 110.786 63.74 110.786 60.82ZM147.386 52.24L123.446 94H116.726L140.666 52.24H147.386ZM119.906 55.6C117.386 55.6 116.126 57.34 116.126 60.82C116.126 64.34 117.386 66.1 119.906 66.1C121.106 66.1 122.026 65.68 122.666 64.84C123.346 63.96 123.686 62.62 123.686 60.82C123.686 57.34 122.426 55.6 119.906 55.6ZM135.206 85.36C135.206 82.44 136.046 80.16 137.726 78.52C139.446 76.84 141.646 76 144.326 76C146.966 76 149.126 76.84 150.806 78.52C152.526 80.16 153.386 82.44 153.386 85.36C153.386 88.28 152.526 90.58 150.806 92.26C149.126 93.94 146.966 94.78 144.326 94.78C141.646 94.78 139.446 93.94 137.726 92.26C136.046 90.58 135.206 88.28 135.206 85.36ZM144.266 80.14C141.746 80.14 140.486 81.88 140.486 85.36C140.486 88.84 141.746 90.58 144.266 90.58C146.786 90.58 148.046 88.84 148.046 85.36C148.046 81.88 146.786 80.14 144.266 80.14Z" fill="#0E1121"/>
<path d="M45.488 130.098C44.5827 130.098 43.7473 129.888 42.982 129.468C42.226 129.039 41.624 128.446 41.176 127.69C40.7373 126.925 40.518 126.066 40.518 125.114C40.518 124.162 40.7373 123.308 41.176 122.552C41.624 121.796 42.226 121.208 42.982 120.788C43.7473 120.359 44.5827 120.144 45.488 120.144C46.4027 120.144 47.238 120.359 47.994 120.788C48.7593 121.208 49.3613 121.796 49.8 122.552C50.2387 123.308 50.458 124.162 50.458 125.114C50.458 126.066 50.2387 126.925 49.8 127.69C49.3613 128.446 48.7593 129.039 47.994 129.468C47.238 129.888 46.4027 130.098 45.488 130.098ZM45.488 128.712C46.132 128.712 46.706 128.567 47.21 128.278C47.714 127.979 48.106 127.559 48.386 127.018C48.6753 126.467 48.82 125.833 48.82 125.114C48.82 124.395 48.6753 123.765 48.386 123.224C48.106 122.683 47.714 122.267 47.21 121.978C46.706 121.689 46.132 121.544 45.488 121.544C44.844 121.544 44.27 121.689 43.766 121.978C43.262 122.267 42.8653 122.683 42.576 123.224C42.296 123.765 42.156 124.395 42.156 125.114C42.156 125.833 42.296 126.467 42.576 127.018C42.8653 127.559 43.262 127.979 43.766 128.278C44.27 128.567 44.844 128.712 45.488 128.712ZM54.9825 123.588H53.5545V130H51.9445V123.588H51.0345V122.286H51.9445V121.74C51.9445 120.853 52.1778 120.209 52.6445 119.808C53.1205 119.397 53.8625 119.192 54.8705 119.192V120.522C54.3852 120.522 54.0445 120.615 53.8485 120.802C53.6525 120.979 53.5545 121.292 53.5545 121.74V122.286H54.9825V123.588ZM58.9417 126.108C58.9417 125.333 59.1003 124.647 59.4177 124.05C59.7443 123.453 60.183 122.991 60.7337 122.664C61.2937 122.328 61.9097 122.16 62.5817 122.16C63.1883 122.16 63.7157 122.281 64.1637 122.524C64.621 122.757 64.985 123.051 65.2557 123.406V122.286H66.8657V130H65.2557V128.852C64.985 129.216 64.6163 129.519 64.1497 129.762C63.683 130.005 63.151 130.126 62.5537 130.126C61.891 130.126 61.2843 129.958 60.7337 129.622C60.183 129.277 59.7443 128.801 59.4177 128.194C59.1003 127.578 58.9417 126.883 58.9417 126.108ZM65.2557 126.136C65.2557 125.604 65.1437 125.142 64.9197 124.75C64.705 124.358 64.4203 124.059 64.0657 123.854C63.711 123.649 63.3283 123.546 62.9177 123.546C62.507 123.546 62.1243 123.649 61.7697 123.854C61.415 124.05 61.1257 124.344 60.9017 124.736C60.687 125.119 60.5797 125.576 60.5797 126.108C60.5797 126.64 60.687 127.107 60.9017 127.508C61.1257 127.909 61.415 128.217 61.7697 128.432C62.1337 128.637 62.5163 128.74 62.9177 128.74C63.3283 128.74 63.711 128.637 64.0657 128.432C64.4203 128.227 64.705 127.928 64.9197 127.536C65.1437 127.135 65.2557 126.668 65.2557 126.136ZM70.278 119.64V130H68.682V119.64H70.278ZM73.6894 119.64V130H72.0934V119.64H73.6894ZM80.4575 123.406C80.6908 123.014 80.9988 122.711 81.3815 122.496C81.7735 122.272 82.2355 122.16 82.7675 122.16V123.812H82.3615C81.7362 123.812 81.2602 123.971 80.9335 124.288C80.6162 124.605 80.4575 125.156 80.4575 125.94V130H78.8615V122.286H80.4575V123.406ZM91.0245 125.954C91.0245 126.243 91.0059 126.505 90.9685 126.738H85.0745C85.1212 127.354 85.3499 127.849 85.7605 128.222C86.1712 128.595 86.6752 128.782 87.2725 128.782C88.1312 128.782 88.7379 128.423 89.0925 127.704H90.8145C90.5812 128.413 90.1565 128.997 89.5405 129.454C88.9339 129.902 88.1779 130.126 87.2725 130.126C86.5352 130.126 85.8725 129.963 85.2845 129.636C84.7059 129.3 84.2485 128.833 83.9125 128.236C83.5859 127.629 83.4225 126.929 83.4225 126.136C83.4225 125.343 83.5812 124.647 83.8985 124.05C84.2252 123.443 84.6779 122.977 85.2565 122.65C85.8445 122.323 86.5165 122.16 87.2725 122.16C88.0005 122.16 88.6492 122.319 89.2185 122.636C89.7879 122.953 90.2312 123.401 90.5485 123.98C90.8659 124.549 91.0245 125.207 91.0245 125.954ZM89.3585 125.45C89.3492 124.862 89.1392 124.391 88.7285 124.036C88.3179 123.681 87.8092 123.504 87.2025 123.504C86.6519 123.504 86.1805 123.681 85.7885 124.036C85.3965 124.381 85.1632 124.853 85.0885 125.45H89.3585ZM95.4232 122.16C96.0205 122.16 96.5478 122.281 97.0052 122.524C97.4718 122.757 97.8358 123.051 98.0972 123.406V122.286H99.7072V130.126C99.7072 130.835 99.5578 131.465 99.2592 132.016C98.9605 132.576 98.5265 133.015 97.9572 133.332C97.3972 133.649 96.7252 133.808 95.9412 133.808C94.8958 133.808 94.0278 133.561 93.3372 133.066C92.6465 132.581 92.2545 131.918 92.1612 131.078H93.7432C93.8645 131.479 94.1212 131.801 94.5132 132.044C94.9145 132.296 95.3905 132.422 95.9412 132.422C96.5852 132.422 97.1032 132.226 97.4952 131.834C97.8965 131.442 98.0972 130.873 98.0972 130.126V128.838C97.8265 129.202 97.4578 129.51 96.9912 129.762C96.5338 130.005 96.0112 130.126 95.4232 130.126C94.7512 130.126 94.1352 129.958 93.5752 129.622C93.0245 129.277 92.5858 128.801 92.2592 128.194C91.9418 127.578 91.7832 126.883 91.7832 126.108C91.7832 125.333 91.9418 124.647 92.2592 124.05C92.5858 123.453 93.0245 122.991 93.5752 122.664C94.1352 122.328 94.7512 122.16 95.4232 122.16ZM98.0972 126.136C98.0972 125.604 97.9852 125.142 97.7612 124.75C97.5465 124.358 97.2618 124.059 96.9072 123.854C96.5525 123.649 96.1698 123.546 95.7592 123.546C95.3485 123.546 94.9658 123.649 94.6112 123.854C94.2565 124.05 93.9672 124.344 93.7432 124.736C93.5285 125.119 93.4212 125.576 93.4212 126.108C93.4212 126.64 93.5285 127.107 93.7432 127.508C93.9672 127.909 94.2565 128.217 94.6112 128.432C94.9752 128.637 95.3578 128.74 95.7592 128.74C96.1698 128.74 96.5525 128.637 96.9072 128.432C97.2618 128.227 97.5465 127.928 97.7612 127.536C97.9852 127.135 98.0972 126.668 98.0972 126.136ZM102.335 121.264C102.046 121.264 101.803 121.166 101.607 120.97C101.411 120.774 101.313 120.531 101.313 120.242C101.313 119.953 101.411 119.71 101.607 119.514C101.803 119.318 102.046 119.22 102.335 119.22C102.615 119.22 102.853 119.318 103.049 119.514C103.245 119.71 103.343 119.953 103.343 120.242C103.343 120.531 103.245 120.774 103.049 120.97C102.853 121.166 102.615 121.264 102.335 121.264ZM103.119 122.286V130H101.523V122.286H103.119ZM107.735 130.126C107.128 130.126 106.582 130.019 106.097 129.804C105.621 129.58 105.243 129.281 104.963 128.908C104.683 128.525 104.534 128.101 104.515 127.634H106.167C106.195 127.961 106.349 128.236 106.629 128.46C106.918 128.675 107.278 128.782 107.707 128.782C108.155 128.782 108.5 128.698 108.743 128.53C108.995 128.353 109.121 128.129 109.121 127.858C109.121 127.569 108.981 127.354 108.701 127.214C108.43 127.074 107.996 126.92 107.399 126.752C106.82 126.593 106.349 126.439 105.985 126.29C105.621 126.141 105.304 125.912 105.033 125.604C104.772 125.296 104.641 124.89 104.641 124.386C104.641 123.975 104.762 123.602 105.005 123.266C105.248 122.921 105.593 122.65 106.041 122.454C106.498 122.258 107.021 122.16 107.609 122.16C108.486 122.16 109.191 122.384 109.723 122.832C110.264 123.271 110.554 123.873 110.591 124.638H108.995C108.967 124.293 108.827 124.017 108.575 123.812C108.323 123.607 107.982 123.504 107.553 123.504C107.133 123.504 106.811 123.583 106.587 123.742C106.363 123.901 106.251 124.111 106.251 124.372C106.251 124.577 106.326 124.75 106.475 124.89C106.624 125.03 106.806 125.142 107.021 125.226C107.236 125.301 107.553 125.399 107.973 125.52C108.533 125.669 108.99 125.823 109.345 125.982C109.709 126.131 110.022 126.355 110.283 126.654C110.544 126.953 110.68 127.349 110.689 127.844C110.689 128.283 110.568 128.675 110.325 129.02C110.082 129.365 109.737 129.636 109.289 129.832C108.85 130.028 108.332 130.126 107.735 130.126ZM113.995 123.588V127.858C113.995 128.147 114.061 128.357 114.191 128.488C114.331 128.609 114.565 128.67 114.891 128.67H115.871V130H114.611C113.893 130 113.342 129.832 112.959 129.496C112.577 129.16 112.385 128.614 112.385 127.858V123.588H111.475V122.286H112.385V120.368H113.995V122.286H115.871V123.588H113.995ZM124.132 125.954C124.132 126.243 124.114 126.505 124.076 126.738H118.182C118.229 127.354 118.458 127.849 118.868 128.222C119.279 128.595 119.783 128.782 120.38 128.782C121.239 128.782 121.846 128.423 122.2 127.704H123.922C123.689 128.413 123.264 128.997 122.648 129.454C122.042 129.902 121.286 130.126 120.38 130.126C119.643 130.126 118.98 129.963 118.392 129.636C117.814 129.3 117.356 128.833 117.02 128.236C116.694 127.629 116.53 126.929 116.53 126.136C116.53 125.343 116.689 124.647 117.006 124.05C117.333 123.443 117.786 122.977 118.364 122.65C118.952 122.323 119.624 122.16 120.38 122.16C121.108 122.16 121.757 122.319 122.326 122.636C122.896 122.953 123.339 123.401 123.656 123.98C123.974 124.549 124.132 125.207 124.132 125.954ZM122.466 125.45C122.457 124.862 122.247 124.391 121.836 124.036C121.426 123.681 120.917 123.504 120.31 123.504C119.76 123.504 119.288 123.681 118.896 124.036C118.504 124.381 118.271 124.853 118.196 125.45H122.466ZM127.019 123.406C127.252 123.014 127.56 122.711 127.943 122.496C128.335 122.272 128.797 122.16 129.329 122.16V123.812H128.923C128.298 123.812 127.822 123.971 127.495 124.288C127.178 124.605 127.019 125.156 127.019 125.94V130H125.423V122.286H127.019V123.406ZM137.586 125.954C137.586 126.243 137.567 126.505 137.53 126.738H131.636C131.683 127.354 131.911 127.849 132.322 128.222C132.733 128.595 133.237 128.782 133.834 128.782C134.693 128.782 135.299 128.423 135.654 127.704H137.376C137.143 128.413 136.718 128.997 136.102 129.454C135.495 129.902 134.739 130.126 133.834 130.126C133.097 130.126 132.434 129.963 131.846 129.636C131.267 129.3 130.81 128.833 130.474 128.236C130.147 127.629 129.984 126.929 129.984 126.136C129.984 125.343 130.143 124.647 130.46 124.05C130.787 123.443 131.239 122.977 131.818 122.65C132.406 122.323 133.078 122.16 133.834 122.16C134.562 122.16 135.211 122.319 135.78 122.636C136.349 122.953 136.793 123.401 137.11 123.98C137.427 124.549 137.586 125.207 137.586 125.954ZM135.92 125.45C135.911 124.862 135.701 124.391 135.29 124.036C134.879 123.681 134.371 123.504 133.764 123.504C133.213 123.504 132.742 123.681 132.35 124.036C131.958 124.381 131.725 124.853 131.65 125.45H135.92ZM138.345 126.108C138.345 125.333 138.503 124.647 138.821 124.05C139.147 123.453 139.586 122.991 140.137 122.664C140.697 122.328 141.317 122.16 141.999 122.16C142.503 122.16 142.997 122.272 143.483 122.496C143.977 122.711 144.369 123 144.659 123.364V119.64H146.269V130H144.659V128.838C144.397 129.211 144.033 129.519 143.567 129.762C143.109 130.005 142.582 130.126 141.985 130.126C141.313 130.126 140.697 129.958 140.137 129.622C139.586 129.277 139.147 128.801 138.821 128.194C138.503 127.578 138.345 126.883 138.345 126.108ZM144.659 126.136C144.659 125.604 144.547 125.142 144.323 124.75C144.108 124.358 143.823 124.059 143.469 123.854C143.114 123.649 142.731 123.546 142.321 123.546C141.91 123.546 141.527 123.649 141.173 123.854C140.818 124.05 140.529 124.344 140.305 124.736C140.09 125.119 139.983 125.576 139.983 126.108C139.983 126.64 140.09 127.107 140.305 127.508C140.529 127.909 140.818 128.217 141.173 128.432C141.537 128.637 141.919 128.74 142.321 128.74C142.731 128.74 143.114 128.637 143.469 128.432C143.823 128.227 144.108 127.928 144.323 127.536C144.547 127.135 144.659 126.668 144.659 126.136ZM153.038 123.42C153.308 123.065 153.677 122.767 154.144 122.524C154.61 122.281 155.138 122.16 155.726 122.16C156.398 122.16 157.009 122.328 157.56 122.664C158.12 122.991 158.558 123.453 158.876 124.05C159.193 124.647 159.352 125.333 159.352 126.108C159.352 126.883 159.193 127.578 158.876 128.194C158.558 128.801 158.12 129.277 157.56 129.622C157.009 129.958 156.398 130.126 155.726 130.126C155.138 130.126 154.615 130.009 154.158 129.776C153.7 129.533 153.327 129.235 153.038 128.88V133.668H151.442V122.286H153.038V123.42ZM157.728 126.108C157.728 125.576 157.616 125.119 157.392 124.736C157.177 124.344 156.888 124.05 156.524 123.854C156.169 123.649 155.786 123.546 155.376 123.546C154.974 123.546 154.592 123.649 154.228 123.854C153.873 124.059 153.584 124.358 153.36 124.75C153.145 125.142 153.038 125.604 153.038 126.136C153.038 126.668 153.145 127.135 153.36 127.536C153.584 127.928 153.873 128.227 154.228 128.432C154.592 128.637 154.974 128.74 155.376 128.74C155.786 128.74 156.169 128.637 156.524 128.432C156.888 128.217 157.177 127.909 157.392 127.508C157.616 127.107 157.728 126.64 157.728 126.108ZM160.118 126.108C160.118 125.333 160.277 124.647 160.594 124.05C160.921 123.453 161.359 122.991 161.91 122.664C162.47 122.328 163.086 122.16 163.758 122.16C164.365 122.16 164.892 122.281 165.34 122.524C165.797 122.757 166.161 123.051 166.432 123.406V122.286H168.042V130H166.432V128.852C166.161 129.216 165.793 129.519 165.326 129.762C164.859 130.005 164.327 130.126 163.73 130.126C163.067 130.126 162.461 129.958 161.91 129.622C161.359 129.277 160.921 128.801 160.594 128.194C160.277 127.578 160.118 126.883 160.118 126.108ZM166.432 126.136C166.432 125.604 166.32 125.142 166.096 124.75C165.881 124.358 165.597 124.059 165.242 123.854C164.887 123.649 164.505 123.546 164.094 123.546C163.683 123.546 163.301 123.649 162.946 123.854C162.591 124.05 162.302 124.344 162.078 124.736C161.863 125.119 161.756 125.576 161.756 126.108C161.756 126.64 161.863 127.107 162.078 127.508C162.302 127.909 162.591 128.217 162.946 128.432C163.31 128.637 163.693 128.74 164.094 128.74C164.505 128.74 164.887 128.637 165.242 128.432C165.597 128.227 165.881 127.928 166.096 127.536C166.32 127.135 166.432 126.668 166.432 126.136ZM171.72 123.588V127.858C171.72 128.147 171.786 128.357 171.916 128.488C172.056 128.609 172.29 128.67 172.616 128.67H173.596V130H172.336C171.618 130 171.067 129.832 170.684 129.496C170.302 129.16 170.11 128.614 170.11 127.858V123.588H169.2V122.286H170.11V120.368H171.72V122.286H173.596V123.588H171.72ZM175.599 121.264C175.31 121.264 175.067 121.166 174.871 120.97C174.675 120.774 174.577 120.531 174.577 120.242C174.577 119.953 174.675 119.71 174.871 119.514C175.067 119.318 175.31 119.22 175.599 119.22C175.879 119.22 176.117 119.318 176.313 119.514C176.509 119.71 176.607 119.953 176.607 120.242C176.607 120.531 176.509 120.774 176.313 120.97C176.117 121.166 175.879 121.264 175.599 121.264ZM176.383 122.286V130H174.787V122.286H176.383ZM185.269 125.954C185.269 126.243 185.25 126.505 185.213 126.738H179.319C179.365 127.354 179.594 127.849 180.005 128.222C180.415 128.595 180.919 128.782 181.517 128.782C182.375 128.782 182.982 128.423 183.337 127.704H185.059C184.825 128.413 184.401 128.997 183.785 129.454C183.178 129.902 182.422 130.126 181.517 130.126C180.779 130.126 180.117 129.963 179.529 129.636C178.95 129.3 178.493 128.833 178.157 128.236C177.83 127.629 177.667 126.929 177.667 126.136C177.667 125.343 177.825 124.647 178.143 124.05C178.469 123.443 178.922 122.977 179.501 122.65C180.089 122.323 180.761 122.16 181.517 122.16C182.245 122.16 182.893 122.319 183.463 122.636C184.032 122.953 184.475 123.401 184.793 123.98C185.11 124.549 185.269 125.207 185.269 125.954ZM183.603 125.45C183.593 124.862 183.383 124.391 182.973 124.036C182.562 123.681 182.053 123.504 181.447 123.504C180.896 123.504 180.425 123.681 180.033 124.036C179.641 124.381 179.407 124.853 179.333 125.45H183.603ZM190.451 122.16C191.058 122.16 191.599 122.286 192.075 122.538C192.561 122.79 192.939 123.163 193.209 123.658C193.48 124.153 193.615 124.75 193.615 125.45V130H192.033V125.688C192.033 124.997 191.861 124.47 191.515 124.106C191.17 123.733 190.699 123.546 190.101 123.546C189.504 123.546 189.028 123.733 188.673 124.106C188.328 124.47 188.155 124.997 188.155 125.688V130H186.559V122.286H188.155V123.168C188.417 122.851 188.748 122.603 189.149 122.426C189.56 122.249 189.994 122.16 190.451 122.16ZM197.233 123.588V127.858C197.233 128.147 197.298 128.357 197.429 128.488C197.569 128.609 197.802 128.67 198.129 128.67H199.109V130H197.849C197.13 130 196.58 129.832 196.197 129.496C195.814 129.16 195.623 128.614 195.623 127.858V123.588H194.713V122.286H195.623V120.368H197.233V122.286H199.109V123.588H197.233ZM203.1 130.126C202.493 130.126 201.947 130.019 201.462 129.804C200.986 129.58 200.608 129.281 200.328 128.908C200.048 128.525 199.899 128.101 199.88 127.634H201.532C201.56 127.961 201.714 128.236 201.994 128.46C202.283 128.675 202.643 128.782 203.072 128.782C203.52 128.782 203.865 128.698 204.108 128.53C204.36 128.353 204.486 128.129 204.486 127.858C204.486 127.569 204.346 127.354 204.066 127.214C203.795 127.074 203.361 126.92 202.764 126.752C202.185 126.593 201.714 126.439 201.35 126.29C200.986 126.141 200.669 125.912 200.398 125.604C200.137 125.296 200.006 124.89 200.006 124.386C200.006 123.975 200.127 123.602 200.37 123.266C200.613 122.921 200.958 122.65 201.406 122.454C201.863 122.258 202.386 122.16 202.974 122.16C203.851 122.16 204.556 122.384 205.088 122.832C205.629 123.271 205.919 123.873 205.956 124.638H204.36C204.332 124.293 204.192 124.017 203.94 123.812C203.688 123.607 203.347 123.504 202.918 123.504C202.498 123.504 202.176 123.583 201.952 123.742C201.728 123.901 201.616 124.111 201.616 124.372C201.616 124.577 201.691 124.75 201.84 124.89C201.989 125.03 202.171 125.142 202.386 125.226C202.601 125.301 202.918 125.399 203.338 125.52C203.898 125.669 204.355 125.823 204.71 125.982C205.074 126.131 205.387 126.355 205.648 126.654C205.909 126.953 206.045 127.349 206.054 127.844C206.054 128.283 205.933 128.675 205.69 129.02C205.447 129.365 205.102 129.636 204.654 129.832C204.215 130.028 203.697 130.126 203.1 130.126ZM210.323 126.108C210.323 125.333 210.482 124.647 210.799 124.05C211.126 123.453 211.565 122.991 212.115 122.664C212.675 122.328 213.296 122.16 213.977 122.16C214.481 122.16 214.976 122.272 215.461 122.496C215.956 122.711 216.348 123 216.637 123.364V119.64H218.247V130H216.637V128.838C216.376 129.211 216.012 129.519 215.545 129.762C215.088 130.005 214.561 130.126 213.963 130.126C213.291 130.126 212.675 129.958 212.115 129.622C211.565 129.277 211.126 128.801 210.799 128.194C210.482 127.578 210.323 126.883 210.323 126.108ZM216.637 126.136C216.637 125.604 216.525 125.142 216.301 124.75C216.087 124.358 215.802 124.059 215.447 123.854C215.093 123.649 214.71 123.546 214.299 123.546C213.889 123.546 213.506 123.649 213.151 123.854C212.797 124.05 212.507 124.344 212.283 124.736C212.069 125.119 211.961 125.576 211.961 126.108C211.961 126.64 212.069 127.107 212.283 127.508C212.507 127.909 212.797 128.217 213.151 128.432C213.515 128.637 213.898 128.74 214.299 128.74C214.71 128.74 215.093 128.637 215.447 128.432C215.802 128.227 216.087 127.928 216.301 127.536C216.525 127.135 216.637 126.668 216.637 126.136ZM223.41 130.126C222.682 130.126 222.024 129.963 221.436 129.636C220.848 129.3 220.386 128.833 220.05 128.236C219.714 127.629 219.546 126.929 219.546 126.136C219.546 125.352 219.718 124.657 220.064 124.05C220.409 123.443 220.88 122.977 221.478 122.65C222.075 122.323 222.742 122.16 223.48 122.16C224.217 122.16 224.884 122.323 225.482 122.65C226.079 122.977 226.55 123.443 226.896 124.05C227.241 124.657 227.414 125.352 227.414 126.136C227.414 126.92 227.236 127.615 226.882 128.222C226.527 128.829 226.042 129.3 225.426 129.636C224.819 129.963 224.147 130.126 223.41 130.126ZM223.41 128.74C223.82 128.74 224.203 128.642 224.558 128.446C224.922 128.25 225.216 127.956 225.44 127.564C225.664 127.172 225.776 126.696 225.776 126.136C225.776 125.576 225.668 125.105 225.454 124.722C225.239 124.33 224.954 124.036 224.6 123.84C224.245 123.644 223.862 123.546 223.452 123.546C223.041 123.546 222.658 123.644 222.304 123.84C221.958 124.036 221.683 124.33 221.478 124.722C221.272 125.105 221.17 125.576 221.17 126.136C221.17 126.967 221.38 127.611 221.8 128.068C222.229 128.516 222.766 128.74 223.41 128.74ZM235.96 122.16C236.567 122.16 237.108 122.286 237.584 122.538C238.069 122.79 238.447 123.163 238.718 123.658C238.989 124.153 239.124 124.75 239.124 125.45V130H237.542V125.688C237.542 124.997 237.369 124.47 237.024 124.106C236.679 123.733 236.207 123.546 235.61 123.546C235.013 123.546 234.537 123.733 234.182 124.106C233.837 124.47 233.664 124.997 233.664 125.688V130H232.068V122.286H233.664V123.168C233.925 122.851 234.257 122.603 234.658 122.426C235.069 122.249 235.503 122.16 235.96 122.16ZM244.226 130.126C243.498 130.126 242.84 129.963 242.252 129.636C241.664 129.3 241.202 128.833 240.866 128.236C240.53 127.629 240.362 126.929 240.362 126.136C240.362 125.352 240.534 124.657 240.88 124.05C241.225 123.443 241.696 122.977 242.294 122.65C242.891 122.323 243.558 122.16 244.296 122.16C245.033 122.16 245.7 122.323 246.298 122.65C246.895 122.977 247.366 123.443 247.712 124.05C248.057 124.657 248.23 125.352 248.23 126.136C248.23 126.92 248.052 127.615 247.698 128.222C247.343 128.829 246.858 129.3 246.242 129.636C245.635 129.963 244.963 130.126 244.226 130.126ZM244.226 128.74C244.636 128.74 245.019 128.642 245.374 128.446C245.738 128.25 246.032 127.956 246.256 127.564C246.48 127.172 246.592 126.696 246.592 126.136C246.592 125.576 246.484 125.105 246.27 124.722C246.055 124.33 245.77 124.036 245.416 123.84C245.061 123.644 244.678 123.546 244.268 123.546C243.857 123.546 243.474 123.644 243.12 123.84C242.774 124.036 242.499 124.33 242.294 124.722C242.088 125.105 241.986 125.576 241.986 126.136C241.986 126.967 242.196 127.611 242.616 128.068C243.045 128.516 243.582 128.74 244.226 128.74ZM251.389 123.588V127.858C251.389 128.147 251.455 128.357 251.585 128.488C251.725 128.609 251.959 128.67 252.285 128.67H253.265V130H252.005C251.287 130 250.736 129.832 250.353 129.496C249.971 129.16 249.779 128.614 249.779 127.858V123.588H248.869V122.286H249.779V120.368H251.389V122.286H253.265V123.588H251.389ZM40.518 146.136C40.518 145.343 40.6767 144.647 40.994 144.05C41.3207 143.443 41.7687 142.977 42.338 142.65C42.9073 142.323 43.5607 142.16 44.298 142.16C45.2313 142.16 46.0013 142.384 46.608 142.832C47.224 143.271 47.6393 143.901 47.854 144.722H46.132C45.992 144.339 45.768 144.041 45.46 143.826C45.152 143.611 44.7647 143.504 44.298 143.504C43.6447 143.504 43.122 143.737 42.73 144.204C42.3473 144.661 42.156 145.305 42.156 146.136C42.156 146.967 42.3473 147.615 42.73 148.082C43.122 148.549 43.6447 148.782 44.298 148.782C45.222 148.782 45.8333 148.376 46.132 147.564H47.854C47.63 148.348 47.21 148.973 46.594 149.44C45.978 149.897 45.2127 150.126 44.298 150.126C43.5607 150.126 42.9073 149.963 42.338 149.636C41.7687 149.3 41.3207 148.833 40.994 148.236C40.6767 147.629 40.518 146.929 40.518 146.136ZM52.5105 150.126C51.7825 150.126 51.1245 149.963 50.5365 149.636C49.9485 149.3 49.4865 148.833 49.1505 148.236C48.8145 147.629 48.6465 146.929 48.6465 146.136C48.6465 145.352 48.8192 144.657 49.1645 144.05C49.5099 143.443 49.9812 142.977 50.5785 142.65C51.1759 142.323 51.8432 142.16 52.5805 142.16C53.3179 142.16 53.9852 142.323 54.5825 142.65C55.1799 142.977 55.6512 143.443 55.9965 144.05C56.3419 144.657 56.5145 145.352 56.5145 146.136C56.5145 146.92 56.3372 147.615 55.9825 148.222C55.6279 148.829 55.1425 149.3 54.5265 149.636C53.9199 149.963 53.2479 150.126 52.5105 150.126ZM52.5105 148.74C52.9212 148.74 53.3039 148.642 53.6585 148.446C54.0225 148.25 54.3165 147.956 54.5405 147.564C54.7645 147.172 54.8765 146.696 54.8765 146.136C54.8765 145.576 54.7692 145.105 54.5545 144.722C54.3399 144.33 54.0552 144.036 53.7005 143.84C53.3459 143.644 52.9632 143.546 52.5525 143.546C52.1419 143.546 51.7592 143.644 51.4045 143.84C51.0592 144.036 50.7839 144.33 50.5785 144.722C50.3732 145.105 50.2705 145.576 50.2705 146.136C50.2705 146.967 50.4805 147.611 50.9005 148.068C51.3299 148.516 51.8665 148.74 52.5105 148.74ZM67.1503 142.16C67.7569 142.16 68.2983 142.286 68.7743 142.538C69.2596 142.79 69.6376 143.163 69.9083 143.658C70.1883 144.153 70.3283 144.75 70.3283 145.45V150H68.7463V145.688C68.7463 144.997 68.5736 144.47 68.2283 144.106C67.8829 143.733 67.4116 143.546 66.8143 143.546C66.2169 143.546 65.7409 143.733 65.3863 144.106C65.0409 144.47 64.8683 144.997 64.8683 145.688V150H63.2863V145.688C63.2863 144.997 63.1136 144.47 62.7683 144.106C62.4229 143.733 61.9516 143.546 61.3543 143.546C60.7569 143.546 60.2809 143.733 59.9263 144.106C59.5809 144.47 59.4083 144.997 59.4083 145.688V150H57.8123V142.286H59.4083V143.168C59.6696 142.851 60.0009 142.603 60.4023 142.426C60.8036 142.249 61.2329 142.16 61.6903 142.16C62.3063 142.16 62.8569 142.291 63.3423 142.552C63.8276 142.813 64.2009 143.191 64.4623 143.686C64.6956 143.219 65.0596 142.851 65.5543 142.58C66.0489 142.3 66.5809 142.16 67.1503 142.16ZM79.1491 145.954C79.1491 146.243 79.1305 146.505 79.0931 146.738H73.1991C73.2458 147.354 73.4745 147.849 73.8851 148.222C74.2958 148.595 74.7998 148.782 75.3971 148.782C76.2558 148.782 76.8625 148.423 77.2171 147.704H78.9391C78.7058 148.413 78.2811 148.997 77.6651 149.454C77.0585 149.902 76.3025 150.126 75.3971 150.126C74.6598 150.126 73.9971 149.963 73.4091 149.636C72.8305 149.3 72.3731 148.833 72.0371 148.236C71.7105 147.629 71.5471 146.929 71.5471 146.136C71.5471 145.343 71.7058 144.647 72.0231 144.05C72.3498 143.443 72.8025 142.977 73.3811 142.65C73.9691 142.323 74.6411 142.16 75.3971 142.16C76.1251 142.16 76.7738 142.319 77.3431 142.636C77.9125 142.953 78.3558 143.401 78.6731 143.98C78.9905 144.549 79.1491 145.207 79.1491 145.954ZM77.4831 145.45C77.4738 144.862 77.2638 144.391 76.8531 144.036C76.4425 143.681 75.9338 143.504 75.3271 143.504C74.7765 143.504 74.3051 143.681 73.9131 144.036C73.5211 144.381 73.2878 144.853 73.2131 145.45H77.4831ZM85.6585 143.588V147.858C85.6585 148.147 85.7238 148.357 85.8545 148.488C85.9945 148.609 86.2278 148.67 86.5545 148.67H87.5345V150H86.2745C85.5558 150 85.0051 149.832 84.6225 149.496C84.2398 149.16 84.0485 148.614 84.0485 147.858V143.588H83.1385V142.286H84.0485V140.368H85.6585V142.286H87.5345V143.588H85.6585ZM92.0715 150.126C91.3435 150.126 90.6855 149.963 90.0975 149.636C89.5095 149.3 89.0475 148.833 88.7115 148.236C88.3755 147.629 88.2075 146.929 88.2075 146.136C88.2075 145.352 88.3801 144.657 88.7255 144.05C89.0708 143.443 89.5421 142.977 90.1395 142.65C90.7368 142.323 91.4041 142.16 92.1415 142.16C92.8788 142.16 93.5461 142.323 94.1435 142.65C94.7408 142.977 95.2121 143.443 95.5575 144.05C95.9028 144.657 96.0755 145.352 96.0755 146.136C96.0755 146.92 95.8981 147.615 95.5435 148.222C95.1888 148.829 94.7035 149.3 94.0875 149.636C93.4808 149.963 92.8088 150.126 92.0715 150.126ZM92.0715 148.74C92.4821 148.74 92.8648 148.642 93.2195 148.446C93.5835 148.25 93.8775 147.956 94.1015 147.564C94.3255 147.172 94.4375 146.696 94.4375 146.136C94.4375 145.576 94.3301 145.105 94.1155 144.722C93.9008 144.33 93.6161 144.036 93.2615 143.84C92.9068 143.644 92.5241 143.546 92.1135 143.546C91.7028 143.546 91.3201 143.644 90.9655 143.84C90.6201 144.036 90.3448 144.33 90.1395 144.722C89.9341 145.105 89.8315 145.576 89.8315 146.136C89.8315 146.967 90.0415 147.611 90.4615 148.068C90.8908 148.516 91.4275 148.74 92.0715 148.74ZM102.592 143.588V147.858C102.592 148.147 102.657 148.357 102.788 148.488C102.928 148.609 103.161 148.67 103.488 148.67H104.468V150H103.208C102.489 150 101.939 149.832 101.556 149.496C101.173 149.16 100.982 148.614 100.982 147.858V143.588H100.072V142.286H100.982V140.368H102.592V142.286H104.468V143.588H102.592ZM109.649 142.16C110.237 142.16 110.76 142.286 111.217 142.538C111.684 142.79 112.048 143.163 112.309 143.658C112.58 144.153 112.715 144.75 112.715 145.45V150H111.133V145.688C111.133 144.997 110.96 144.47 110.615 144.106C110.27 143.733 109.798 143.546 109.201 143.546C108.604 143.546 108.128 143.733 107.773 144.106C107.428 144.47 107.255 144.997 107.255 145.688V150H105.659V139.64H107.255V143.182C107.526 142.855 107.866 142.603 108.277 142.426C108.697 142.249 109.154 142.16 109.649 142.16ZM121.541 145.954C121.541 146.243 121.522 146.505 121.485 146.738H115.591C115.637 147.354 115.866 147.849 116.277 148.222C116.687 148.595 117.191 148.782 117.789 148.782C118.647 148.782 119.254 148.423 119.609 147.704H121.331C121.097 148.413 120.673 148.997 120.057 149.454C119.45 149.902 118.694 150.126 117.789 150.126C117.051 150.126 116.389 149.963 115.801 149.636C115.222 149.3 114.765 148.833 114.429 148.236C114.102 147.629 113.939 146.929 113.939 146.136C113.939 145.343 114.097 144.647 114.415 144.05C114.741 143.443 115.194 142.977 115.773 142.65C116.361 142.323 117.033 142.16 117.789 142.16C118.517 142.16 119.165 142.319 119.735 142.636C120.304 142.953 120.747 143.401 121.065 143.98C121.382 144.549 121.541 145.207 121.541 145.954ZM119.875 145.45C119.865 144.862 119.655 144.391 119.245 144.036C118.834 143.681 118.325 143.504 117.719 143.504C117.168 143.504 116.697 143.681 116.305 144.036C115.913 144.381 115.679 144.853 115.605 145.45H119.875ZM130.178 142.16C130.766 142.16 131.289 142.286 131.746 142.538C132.213 142.79 132.577 143.163 132.838 143.658C133.109 144.153 133.244 144.75 133.244 145.45V150H131.662V145.688C131.662 144.997 131.489 144.47 131.144 144.106C130.799 143.733 130.327 143.546 129.73 143.546C129.133 143.546 128.657 143.733 128.302 144.106C127.957 144.47 127.784 144.997 127.784 145.688V150H126.188V139.64H127.784V143.182C128.055 142.855 128.395 142.603 128.806 142.426C129.226 142.249 129.683 142.16 130.178 142.16ZM138.346 150.126C137.618 150.126 136.96 149.963 136.372 149.636C135.784 149.3 135.322 148.833 134.986 148.236C134.65 147.629 134.482 146.929 134.482 146.136C134.482 145.352 134.655 144.657 135 144.05C135.345 143.443 135.817 142.977 136.414 142.65C137.011 142.323 137.679 142.16 138.416 142.16C139.153 142.16 139.821 142.323 140.418 142.65C141.015 142.977 141.487 143.443 141.832 144.05C142.177 144.657 142.35 145.352 142.35 146.136C142.35 146.92 142.173 147.615 141.818 148.222C141.463 148.829 140.978 149.3 140.362 149.636C139.755 149.963 139.083 150.126 138.346 150.126ZM138.346 148.74C138.757 148.74 139.139 148.642 139.494 148.446C139.858 148.25 140.152 147.956 140.376 147.564C140.6 147.172 140.712 146.696 140.712 146.136C140.712 145.576 140.605 145.105 140.39 144.722C140.175 144.33 139.891 144.036 139.536 143.84C139.181 143.644 138.799 143.546 138.388 143.546C137.977 143.546 137.595 143.644 137.24 143.84C136.895 144.036 136.619 144.33 136.414 144.722C136.209 145.105 136.106 145.576 136.106 146.136C136.106 146.967 136.316 147.611 136.736 148.068C137.165 148.516 137.702 148.74 138.346 148.74ZM146.448 150.126C145.841 150.126 145.295 150.019 144.81 149.804C144.334 149.58 143.956 149.281 143.676 148.908C143.396 148.525 143.246 148.101 143.228 147.634H144.88C144.908 147.961 145.062 148.236 145.342 148.46C145.631 148.675 145.99 148.782 146.42 148.782C146.868 148.782 147.213 148.698 147.456 148.53C147.708 148.353 147.834 148.129 147.834 147.858C147.834 147.569 147.694 147.354 147.414 147.214C147.143 147.074 146.709 146.92 146.112 146.752C145.533 146.593 145.062 146.439 144.698 146.29C144.334 146.141 144.016 145.912 143.746 145.604C143.484 145.296 143.354 144.89 143.354 144.386C143.354 143.975 143.475 143.602 143.718 143.266C143.96 142.921 144.306 142.65 144.754 142.454C145.211 142.258 145.734 142.16 146.322 142.16C147.199 142.16 147.904 142.384 148.436 142.832C148.977 143.271 149.266 143.873 149.304 144.638H147.708C147.68 144.293 147.54 144.017 147.288 143.812C147.036 143.607 146.695 143.504 146.266 143.504C145.846 143.504 145.524 143.583 145.3 143.742C145.076 143.901 144.964 144.111 144.964 144.372C144.964 144.577 145.038 144.75 145.188 144.89C145.337 145.03 145.519 145.142 145.734 145.226C145.948 145.301 146.266 145.399 146.686 145.52C147.246 145.669 147.703 145.823 148.058 145.982C148.422 146.131 148.734 146.355 148.996 146.654C149.257 146.953 149.392 147.349 149.402 147.844C149.402 148.283 149.28 148.675 149.038 149.02C148.795 149.365 148.45 149.636 148.002 149.832C147.563 150.028 147.045 150.126 146.448 150.126ZM152.442 143.42C152.713 143.065 153.081 142.767 153.548 142.524C154.015 142.281 154.542 142.16 155.13 142.16C155.802 142.16 156.413 142.328 156.964 142.664C157.524 142.991 157.963 143.453 158.28 144.05C158.597 144.647 158.756 145.333 158.756 146.108C158.756 146.883 158.597 147.578 158.28 148.194C157.963 148.801 157.524 149.277 156.964 149.622C156.413 149.958 155.802 150.126 155.13 150.126C154.542 150.126 154.019 150.009 153.562 149.776C153.105 149.533 152.731 149.235 152.442 148.88V153.668H150.846V142.286H152.442V143.42ZM157.132 146.108C157.132 145.576 157.02 145.119 156.796 144.736C156.581 144.344 156.292 144.05 155.928 143.854C155.573 143.649 155.191 143.546 154.78 143.546C154.379 143.546 153.996 143.649 153.632 143.854C153.277 144.059 152.988 144.358 152.764 144.75C152.549 145.142 152.442 145.604 152.442 146.136C152.442 146.668 152.549 147.135 152.764 147.536C152.988 147.928 153.277 148.227 153.632 148.432C153.996 148.637 154.379 148.74 154.78 148.74C155.191 148.74 155.573 148.637 155.928 148.432C156.292 148.217 156.581 147.909 156.796 147.508C157.02 147.107 157.132 146.64 157.132 146.108ZM160.866 141.264C160.577 141.264 160.334 141.166 160.138 140.97C159.942 140.774 159.844 140.531 159.844 140.242C159.844 139.953 159.942 139.71 160.138 139.514C160.334 139.318 160.577 139.22 160.866 139.22C161.146 139.22 161.384 139.318 161.58 139.514C161.776 139.71 161.874 139.953 161.874 140.242C161.874 140.531 161.776 140.774 161.58 140.97C161.384 141.166 161.146 141.264 160.866 141.264ZM161.65 142.286V150H160.054V142.286H161.65ZM165.328 143.588V147.858C165.328 148.147 165.393 148.357 165.524 148.488C165.664 148.609 165.897 148.67 166.224 148.67H167.204V150H165.944C165.225 150 164.674 149.832 164.292 149.496C163.909 149.16 163.718 148.614 163.718 147.858V143.588H162.808V142.286H163.718V140.368H165.328V142.286H167.204V143.588H165.328ZM167.863 146.108C167.863 145.333 168.021 144.647 168.339 144.05C168.665 143.453 169.104 142.991 169.655 142.664C170.215 142.328 170.831 142.16 171.503 142.16C172.109 142.16 172.637 142.281 173.085 142.524C173.542 142.757 173.906 143.051 174.177 143.406V142.286H175.787V150H174.177V148.852C173.906 149.216 173.537 149.519 173.071 149.762C172.604 150.005 172.072 150.126 171.475 150.126C170.812 150.126 170.205 149.958 169.655 149.622C169.104 149.277 168.665 148.801 168.339 148.194C168.021 147.578 167.863 146.883 167.863 146.108ZM174.177 146.136C174.177 145.604 174.065 145.142 173.841 144.75C173.626 144.358 173.341 144.059 172.987 143.854C172.632 143.649 172.249 143.546 171.839 143.546C171.428 143.546 171.045 143.649 170.691 143.854C170.336 144.05 170.047 144.344 169.823 144.736C169.608 145.119 169.501 145.576 169.501 146.108C169.501 146.64 169.608 147.107 169.823 147.508C170.047 147.909 170.336 148.217 170.691 148.432C171.055 148.637 171.437 148.74 171.839 148.74C172.249 148.74 172.632 148.637 172.987 148.432C173.341 148.227 173.626 147.928 173.841 147.536C174.065 147.135 174.177 146.668 174.177 146.136ZM179.199 139.64V150H177.603V139.64H179.199ZM183.839 146.108C183.839 145.333 183.998 144.647 184.315 144.05C184.642 143.453 185.081 142.991 185.631 142.664C186.191 142.328 186.812 142.16 187.493 142.16C187.997 142.16 188.492 142.272 188.977 142.496C189.472 142.711 189.864 143 190.153 143.364V139.64H191.763V150H190.153V148.838C189.892 149.211 189.528 149.519 189.061 149.762C188.604 150.005 188.077 150.126 187.479 150.126C186.807 150.126 186.191 149.958 185.631 149.622C185.081 149.277 184.642 148.801 184.315 148.194C183.998 147.578 183.839 146.883 183.839 146.108ZM190.153 146.136C190.153 145.604 190.041 145.142 189.817 144.75C189.603 144.358 189.318 144.059 188.963 143.854C188.609 143.649 188.226 143.546 187.815 143.546C187.405 143.546 187.022 143.649 186.667 143.854C186.313 144.05 186.023 144.344 185.799 144.736C185.585 145.119 185.477 145.576 185.477 146.108C185.477 146.64 185.585 147.107 185.799 147.508C186.023 147.909 186.313 148.217 186.667 148.432C187.031 148.637 187.414 148.74 187.815 148.74C188.226 148.74 188.609 148.637 188.963 148.432C189.318 148.227 189.603 147.928 189.817 147.536C190.041 147.135 190.153 146.668 190.153 146.136ZM200.565 142.286V150H198.969V149.09C198.717 149.407 198.386 149.659 197.975 149.846C197.574 150.023 197.145 150.112 196.687 150.112C196.081 150.112 195.535 149.986 195.049 149.734C194.573 149.482 194.195 149.109 193.915 148.614C193.645 148.119 193.509 147.522 193.509 146.822V142.286H195.091V146.584C195.091 147.275 195.264 147.807 195.609 148.18C195.955 148.544 196.426 148.726 197.023 148.726C197.621 148.726 198.092 148.544 198.437 148.18C198.792 147.807 198.969 147.275 198.969 146.584V142.286H200.565ZM209.461 145.954C209.461 146.243 209.443 146.505 209.405 146.738H203.511C203.558 147.354 203.787 147.849 204.197 148.222C204.608 148.595 205.112 148.782 205.709 148.782C206.568 148.782 207.175 148.423 207.529 147.704H209.251C209.018 148.413 208.593 148.997 207.977 149.454C207.371 149.902 206.615 150.126 205.709 150.126C204.972 150.126 204.309 149.963 203.721 149.636C203.143 149.3 202.685 148.833 202.349 148.236C202.023 147.629 201.859 146.929 201.859 146.136C201.859 145.343 202.018 144.647 202.335 144.05C202.662 143.443 203.115 142.977 203.693 142.65C204.281 142.323 204.953 142.16 205.709 142.16C206.437 142.16 207.086 142.319 207.655 142.636C208.225 142.953 208.668 143.401 208.985 143.98C209.303 144.549 209.461 145.207 209.461 145.954ZM207.795 145.45C207.786 144.862 207.576 144.391 207.165 144.036C206.755 143.681 206.246 143.504 205.639 143.504C205.089 143.504 204.617 143.681 204.225 144.036C203.833 144.381 203.6 144.853 203.525 145.45H207.795ZM215.971 143.588V147.858C215.971 148.147 216.036 148.357 216.167 148.488C216.307 148.609 216.54 148.67 216.867 148.67H217.847V150H216.587C215.868 150 215.317 149.832 214.935 149.496C214.552 149.16 214.361 148.614 214.361 147.858V143.588H213.451V142.286H214.361V140.368H215.971V142.286H217.847V143.588H215.971ZM222.384 150.126C221.656 150.126 220.998 149.963 220.41 149.636C219.822 149.3 219.36 148.833 219.024 148.236C218.688 147.629 218.52 146.929 218.52 146.136C218.52 145.352 218.692 144.657 219.038 144.05C219.383 143.443 219.854 142.977 220.452 142.65C221.049 142.323 221.716 142.16 222.454 142.16C223.191 142.16 223.858 142.323 224.456 142.65C225.053 142.977 225.524 143.443 225.87 144.05C226.215 144.657 226.388 145.352 226.388 146.136C226.388 146.92 226.21 147.615 225.856 148.222C225.501 148.829 225.016 149.3 224.4 149.636C223.793 149.963 223.121 150.126 222.384 150.126ZM222.384 148.74C222.794 148.74 223.177 148.642 223.532 148.446C223.896 148.25 224.19 147.956 224.414 147.564C224.638 147.172 224.75 146.696 224.75 146.136C224.75 145.576 224.642 145.105 224.428 144.722C224.213 144.33 223.928 144.036 223.574 143.84C223.219 143.644 222.836 143.546 222.426 143.546C222.015 143.546 221.632 143.644 221.278 143.84C220.932 144.036 220.657 144.33 220.452 144.722C220.246 145.105 220.144 145.576 220.144 146.136C220.144 146.967 220.354 147.611 220.774 148.068C221.203 148.516 221.74 148.74 222.384 148.74ZM42.912 163.588V167.858C42.912 168.147 42.9773 168.357 43.108 168.488C43.248 168.609 43.4813 168.67 43.808 168.67H44.788V170H43.528C42.8093 170 42.2587 169.832 41.876 169.496C41.4933 169.16 41.302 168.614 41.302 167.858V163.588H40.392V162.286H41.302V160.368H42.912V162.286H44.788V163.588H42.912ZM47.575 163.406C47.8083 163.014 48.1163 162.711 48.499 162.496C48.891 162.272 49.353 162.16 49.885 162.16V163.812H49.479C48.8537 163.812 48.3777 163.971 48.051 164.288C47.7337 164.605 47.575 165.156 47.575 165.94V170H45.979V162.286H47.575V163.406ZM50.54 166.108C50.54 165.333 50.6987 164.647 51.016 164.05C51.3427 163.453 51.7814 162.991 52.332 162.664C52.892 162.328 53.508 162.16 54.18 162.16C54.7867 162.16 55.314 162.281 55.762 162.524C56.2194 162.757 56.5834 163.051 56.854 163.406V162.286H58.464V170H56.854V168.852C56.5834 169.216 56.2147 169.519 55.748 169.762C55.2814 170.005 54.7494 170.126 54.152 170.126C53.4894 170.126 52.8827 169.958 52.332 169.622C51.7814 169.277 51.3427 168.801 51.016 168.194C50.6987 167.578 50.54 166.883 50.54 166.108ZM56.854 166.136C56.854 165.604 56.742 165.142 56.518 164.75C56.3034 164.358 56.0187 164.059 55.664 163.854C55.3094 163.649 54.9267 163.546 54.516 163.546C54.1054 163.546 53.7227 163.649 53.368 163.854C53.0134 164.05 52.724 164.344 52.5 164.736C52.2854 165.119 52.178 165.576 52.178 166.108C52.178 166.64 52.2854 167.107 52.5 167.508C52.724 167.909 53.0134 168.217 53.368 168.432C53.732 168.637 54.1147 168.74 54.516 168.74C54.9267 168.74 55.3094 168.637 55.664 168.432C56.0187 168.227 56.3034 167.928 56.518 167.536C56.742 167.135 56.854 166.668 56.854 166.136ZM64.1723 162.16C64.779 162.16 65.3203 162.286 65.7963 162.538C66.2816 162.79 66.6596 163.163 66.9303 163.658C67.201 164.153 67.3363 164.75 67.3363 165.45V170H65.7543V165.688C65.7543 164.997 65.5816 164.47 65.2363 164.106C64.891 163.733 64.4196 163.546 63.8223 163.546C63.225 163.546 62.749 163.733 62.3943 164.106C62.049 164.47 61.8763 164.997 61.8763 165.688V170H60.2803V162.286H61.8763V163.168C62.1376 162.851 62.469 162.603 62.8703 162.426C63.281 162.249 63.715 162.16 64.1723 162.16ZM71.8921 170.126C71.2854 170.126 70.7394 170.019 70.2541 169.804C69.7781 169.58 69.4001 169.281 69.1201 168.908C68.8401 168.525 68.6908 168.101 68.6721 167.634H70.3241C70.3521 167.961 70.5061 168.236 70.7861 168.46C71.0754 168.675 71.4348 168.782 71.8641 168.782C72.3121 168.782 72.6574 168.698 72.9001 168.53C73.1521 168.353 73.2781 168.129 73.2781 167.858C73.2781 167.569 73.1381 167.354 72.8581 167.214C72.5874 167.074 72.1534 166.92 71.5561 166.752C70.9774 166.593 70.5061 166.439 70.1421 166.29C69.7781 166.141 69.4608 165.912 69.1901 165.604C68.9288 165.296 68.7981 164.89 68.7981 164.386C68.7981 163.975 68.9194 163.602 69.1621 163.266C69.4048 162.921 69.7501 162.65 70.1981 162.454C70.6554 162.258 71.1781 162.16 71.7661 162.16C72.6434 162.16 73.3481 162.384 73.8801 162.832C74.4214 163.271 74.7108 163.873 74.7481 164.638H73.1521C73.1241 164.293 72.9841 164.017 72.7321 163.812C72.4801 163.607 72.1394 163.504 71.7101 163.504C71.2901 163.504 70.9681 163.583 70.7441 163.742C70.5201 163.901 70.4081 164.111 70.4081 164.372C70.4081 164.577 70.4828 164.75 70.6321 164.89C70.7814 165.03 70.9634 165.142 71.1781 165.226C71.3928 165.301 71.7101 165.399 72.1301 165.52C72.6901 165.669 73.1474 165.823 73.5021 165.982C73.8661 166.131 74.1788 166.355 74.4401 166.654C74.7014 166.953 74.8368 167.349 74.8461 167.844C74.8461 168.283 74.7248 168.675 74.4821 169.02C74.2394 169.365 73.8941 169.636 73.4461 169.832C73.0074 170.028 72.4894 170.126 71.8921 170.126ZM77.8866 163.42C78.1573 163.065 78.526 162.767 78.9926 162.524C79.4593 162.281 79.9866 162.16 80.5746 162.16C81.2466 162.16 81.858 162.328 82.4086 162.664C82.9686 162.991 83.4073 163.453 83.7246 164.05C84.042 164.647 84.2006 165.333 84.2006 166.108C84.2006 166.883 84.042 167.578 83.7246 168.194C83.4073 168.801 82.9686 169.277 82.4086 169.622C81.858 169.958 81.2466 170.126 80.5746 170.126C79.9866 170.126 79.464 170.009 79.0066 169.776C78.5493 169.533 78.176 169.235 77.8866 168.88V173.668H76.2906V162.286H77.8866V163.42ZM82.5766 166.108C82.5766 165.576 82.4646 165.119 82.2406 164.736C82.026 164.344 81.7366 164.05 81.3726 163.854C81.018 163.649 80.6353 163.546 80.2246 163.546C79.8233 163.546 79.4406 163.649 79.0766 163.854C78.722 164.059 78.4326 164.358 78.2086 164.75C77.994 165.142 77.8866 165.604 77.8866 166.136C77.8866 166.668 77.994 167.135 78.2086 167.536C78.4326 167.928 78.722 168.227 79.0766 168.432C79.4406 168.637 79.8233 168.74 80.2246 168.74C80.6353 168.74 81.018 168.637 81.3726 168.432C81.7366 168.217 82.026 167.909 82.2406 167.508C82.4646 167.107 82.5766 166.64 82.5766 166.108ZM88.8449 170.126C88.1169 170.126 87.4589 169.963 86.8709 169.636C86.2829 169.3 85.8209 168.833 85.4849 168.236C85.1489 167.629 84.9809 166.929 84.9809 166.136C84.9809 165.352 85.1536 164.657 85.4989 164.05C85.8442 163.443 86.3156 162.977 86.9129 162.65C87.5102 162.323 88.1776 162.16 88.9149 162.16C89.6522 162.16 90.3196 162.323 90.9169 162.65C91.5142 162.977 91.9856 163.443 92.3309 164.05C92.6762 164.657 92.8489 165.352 92.8489 166.136C92.8489 166.92 92.6716 167.615 92.3169 168.222C91.9622 168.829 91.4769 169.3 90.8609 169.636C90.2542 169.963 89.5822 170.126 88.8449 170.126ZM88.8449 168.74C89.2556 168.74 89.6382 168.642 89.9929 168.446C90.3569 168.25 90.6509 167.956 90.8749 167.564C91.0989 167.172 91.2109 166.696 91.2109 166.136C91.2109 165.576 91.1036 165.105 90.8889 164.722C90.6742 164.33 90.3896 164.036 90.0349 163.84C89.6802 163.644 89.2976 163.546 88.8869 163.546C88.4762 163.546 88.0936 163.644 87.7389 163.84C87.3936 164.036 87.1182 164.33 86.9129 164.722C86.7076 165.105 86.6049 165.576 86.6049 166.136C86.6049 166.967 86.8149 167.611 87.2349 168.068C87.6642 168.516 88.2009 168.74 88.8449 168.74ZM95.7426 163.406C95.976 163.014 96.284 162.711 96.6666 162.496C97.0586 162.272 97.5206 162.16 98.0526 162.16V163.812H97.6466C97.0213 163.812 96.5453 163.971 96.2186 164.288C95.9013 164.605 95.7426 165.156 95.7426 165.94V170H94.1466V162.286H95.7426V163.406ZM101.102 163.588V167.858C101.102 168.147 101.167 168.357 101.298 168.488C101.438 168.609 101.671 168.67 101.998 168.67H102.978V170H101.718C100.999 170 100.448 169.832 100.066 169.496C99.683 169.16 99.4917 168.614 99.4917 167.858V163.588H98.5817V162.286H99.4917V160.368H101.102V162.286H102.978V163.588H101.102ZM103.637 166.108C103.637 165.333 103.795 164.647 104.113 164.05C104.439 163.453 104.878 162.991 105.429 162.664C105.989 162.328 106.605 162.16 107.277 162.16C107.883 162.16 108.411 162.281 108.859 162.524C109.316 162.757 109.68 163.051 109.951 163.406V162.286H111.561V170H109.951V168.852C109.68 169.216 109.311 169.519 108.845 169.762C108.378 170.005 107.846 170.126 107.249 170.126C106.586 170.126 105.979 169.958 105.429 169.622C104.878 169.277 104.439 168.801 104.113 168.194C103.795 167.578 103.637 166.883 103.637 166.108ZM109.951 166.136C109.951 165.604 109.839 165.142 109.615 164.75C109.4 164.358 109.115 164.059 108.761 163.854C108.406 163.649 108.023 163.546 107.613 163.546C107.202 163.546 106.819 163.649 106.465 163.854C106.11 164.05 105.821 164.344 105.597 164.736C105.382 165.119 105.275 165.576 105.275 166.108C105.275 166.64 105.382 167.107 105.597 167.508C105.821 167.909 106.11 168.217 106.465 168.432C106.829 168.637 107.211 168.74 107.613 168.74C108.023 168.74 108.406 168.637 108.761 168.432C109.115 168.227 109.4 167.928 109.615 167.536C109.839 167.135 109.951 166.668 109.951 166.136ZM115.239 163.588V167.858C115.239 168.147 115.304 168.357 115.435 168.488C115.575 168.609 115.808 168.67 116.135 168.67H117.115V170H115.855C115.136 170 114.586 169.832 114.203 169.496C113.82 169.16 113.629 168.614 113.629 167.858V163.588H112.719V162.286H113.629V160.368H115.239V162.286H117.115V163.588H115.239ZM119.118 161.264C118.829 161.264 118.586 161.166 118.39 160.97C118.194 160.774 118.096 160.531 118.096 160.242C118.096 159.953 118.194 159.71 118.39 159.514C118.586 159.318 118.829 159.22 119.118 159.22C119.398 159.22 119.636 159.318 119.832 159.514C120.028 159.71 120.126 159.953 120.126 160.242C120.126 160.531 120.028 160.774 119.832 160.97C119.636 161.166 119.398 161.264 119.118 161.264ZM119.902 162.286V170H118.306V162.286H119.902ZM125.063 170.126C124.335 170.126 123.677 169.963 123.089 169.636C122.501 169.3 122.039 168.833 121.703 168.236C121.367 167.629 121.199 166.929 121.199 166.136C121.199 165.352 121.372 164.657 121.717 164.05C122.063 163.443 122.534 162.977 123.131 162.65C123.729 162.323 124.396 162.16 125.133 162.16C125.871 162.16 126.538 162.323 127.135 162.65C127.733 162.977 128.204 163.443 128.549 164.05C128.895 164.657 129.067 165.352 129.067 166.136C129.067 166.92 128.89 167.615 128.535 168.222C128.181 168.829 127.695 169.3 127.079 169.636C126.473 169.963 125.801 170.126 125.063 170.126ZM125.063 168.74C125.474 168.74 125.857 168.642 126.211 168.446C126.575 168.25 126.869 167.956 127.093 167.564C127.317 167.172 127.429 166.696 127.429 166.136C127.429 165.576 127.322 165.105 127.107 164.722C126.893 164.33 126.608 164.036 126.253 163.84C125.899 163.644 125.516 163.546 125.105 163.546C124.695 163.546 124.312 163.644 123.957 163.84C123.612 164.036 123.337 164.33 123.131 164.722C122.926 165.105 122.823 165.576 122.823 166.136C122.823 166.967 123.033 167.611 123.453 168.068C123.883 168.516 124.419 168.74 125.063 168.74ZM134.257 162.16C134.864 162.16 135.405 162.286 135.881 162.538C136.366 162.79 136.744 163.163 137.015 163.658C137.286 164.153 137.421 164.75 137.421 165.45V170H135.839V165.688C135.839 164.997 135.666 164.47 135.321 164.106C134.976 163.733 134.504 163.546 133.907 163.546C133.31 163.546 132.834 163.733 132.479 164.106C132.134 164.47 131.961 164.997 131.961 165.688V170H130.365V162.286H131.961V163.168C132.222 162.851 132.554 162.603 132.955 162.426C133.366 162.249 133.8 162.16 134.257 162.16ZM144.13 163.42C144.4 163.065 144.769 162.767 145.236 162.524C145.702 162.281 146.23 162.16 146.818 162.16C147.49 162.16 148.101 162.328 148.652 162.664C149.212 162.991 149.65 163.453 149.968 164.05C150.285 164.647 150.444 165.333 150.444 166.108C150.444 166.883 150.285 167.578 149.968 168.194C149.65 168.801 149.212 169.277 148.652 169.622C148.101 169.958 147.49 170.126 146.818 170.126C146.23 170.126 145.707 170.009 145.25 169.776C144.792 169.533 144.419 169.235 144.13 168.88V173.668H142.534V162.286H144.13V163.42ZM148.82 166.108C148.82 165.576 148.708 165.119 148.484 164.736C148.269 164.344 147.98 164.05 147.616 163.854C147.261 163.649 146.878 163.546 146.468 163.546C146.066 163.546 145.684 163.649 145.32 163.854C144.965 164.059 144.676 164.358 144.452 164.75C144.237 165.142 144.13 165.604 144.13 166.136C144.13 166.668 144.237 167.135 144.452 167.536C144.676 167.928 144.965 168.227 145.32 168.432C145.684 168.637 146.066 168.74 146.468 168.74C146.878 168.74 147.261 168.637 147.616 168.432C147.98 168.217 148.269 167.909 148.484 167.508C148.708 167.107 148.82 166.64 148.82 166.108ZM153.338 163.406C153.571 163.014 153.879 162.711 154.262 162.496C154.654 162.272 155.116 162.16 155.648 162.16V163.812H155.242C154.617 163.812 154.141 163.971 153.814 164.288C153.497 164.605 153.338 165.156 153.338 165.94V170H151.742V162.286H153.338V163.406ZM160.181 170.126C159.453 170.126 158.795 169.963 158.207 169.636C157.619 169.3 157.157 168.833 156.821 168.236C156.485 167.629 156.317 166.929 156.317 166.136C156.317 165.352 156.49 164.657 156.835 164.05C157.18 163.443 157.652 162.977 158.249 162.65C158.846 162.323 159.514 162.16 160.251 162.16C160.988 162.16 161.656 162.323 162.253 162.65C162.85 162.977 163.322 163.443 163.667 164.05C164.012 164.657 164.185 165.352 164.185 166.136C164.185 166.92 164.008 167.615 163.653 168.222C163.298 168.829 162.813 169.3 162.197 169.636C161.59 169.963 160.918 170.126 160.181 170.126ZM160.181 168.74C160.592 168.74 160.974 168.642 161.329 168.446C161.693 168.25 161.987 167.956 162.211 167.564C162.435 167.172 162.547 166.696 162.547 166.136C162.547 165.576 162.44 165.105 162.225 164.722C162.01 164.33 161.726 164.036 161.371 163.84C161.016 163.644 160.634 163.546 160.223 163.546C159.812 163.546 159.43 163.644 159.075 163.84C158.73 164.036 158.454 164.33 158.249 164.722C158.044 165.105 157.941 165.576 157.941 166.136C157.941 166.967 158.151 167.611 158.571 168.068C159 168.516 159.537 168.74 160.181 168.74ZM167.079 163.434C167.349 163.061 167.718 162.757 168.185 162.524C168.661 162.281 169.188 162.16 169.767 162.16C170.448 162.16 171.064 162.323 171.615 162.65C172.165 162.977 172.599 163.443 172.917 164.05C173.234 164.647 173.393 165.333 173.393 166.108C173.393 166.883 173.234 167.578 172.917 168.194C172.599 168.801 172.161 169.277 171.601 169.622C171.05 169.958 170.439 170.126 169.767 170.126C169.169 170.126 168.637 170.009 168.171 169.776C167.713 169.543 167.349 169.244 167.079 168.88V170H165.483V159.64H167.079V163.434ZM171.769 166.108C171.769 165.576 171.657 165.119 171.433 164.736C171.218 164.344 170.929 164.05 170.565 163.854C170.21 163.649 169.827 163.546 169.417 163.546C169.015 163.546 168.633 163.649 168.269 163.854C167.914 164.059 167.625 164.358 167.401 164.75C167.186 165.142 167.079 165.604 167.079 166.136C167.079 166.668 167.186 167.135 167.401 167.536C167.625 167.928 167.914 168.227 168.269 168.432C168.633 168.637 169.015 168.74 169.417 168.74C169.827 168.74 170.21 168.637 170.565 168.432C170.929 168.217 171.218 167.909 171.433 167.508C171.657 167.107 171.769 166.64 171.769 166.108ZM176.287 159.64V170H174.691V159.64H176.287ZM185.172 165.954C185.172 166.243 185.154 166.505 185.116 166.738H179.222C179.269 167.354 179.498 167.849 179.908 168.222C180.319 168.595 180.823 168.782 181.42 168.782C182.279 168.782 182.886 168.423 183.24 167.704H184.962C184.729 168.413 184.304 168.997 183.688 169.454C183.082 169.902 182.326 170.126 181.42 170.126C180.683 170.126 180.02 169.963 179.432 169.636C178.854 169.3 178.396 168.833 178.06 168.236C177.734 167.629 177.57 166.929 177.57 166.136C177.57 165.343 177.729 164.647 178.046 164.05C178.373 163.443 178.826 162.977 179.404 162.65C179.992 162.323 180.664 162.16 181.42 162.16C182.148 162.16 182.797 162.319 183.366 162.636C183.936 162.953 184.379 163.401 184.696 163.98C185.014 164.549 185.172 165.207 185.172 165.954ZM183.506 165.45C183.497 164.862 183.287 164.391 182.876 164.036C182.466 163.681 181.957 163.504 181.35 163.504C180.8 163.504 180.328 163.681 179.936 164.036C179.544 164.381 179.311 164.853 179.236 165.45H183.506ZM195.801 162.16C196.408 162.16 196.949 162.286 197.425 162.538C197.91 162.79 198.288 163.163 198.559 163.658C198.839 164.153 198.979 164.75 198.979 165.45V170H197.397V165.688C197.397 164.997 197.224 164.47 196.879 164.106C196.534 163.733 196.062 163.546 195.465 163.546C194.868 163.546 194.392 163.733 194.037 164.106C193.692 164.47 193.519 164.997 193.519 165.688V170H191.937V165.688C191.937 164.997 191.764 164.47 191.419 164.106C191.074 163.733 190.602 163.546 190.005 163.546C189.408 163.546 188.932 163.733 188.577 164.106C188.232 164.47 188.059 164.997 188.059 165.688V170H186.463V162.286H188.059V163.168C188.32 162.851 188.652 162.603 189.053 162.426C189.454 162.249 189.884 162.16 190.341 162.16C190.957 162.16 191.508 162.291 191.993 162.552C192.478 162.813 192.852 163.191 193.113 163.686C193.346 163.219 193.71 162.851 194.205 162.58C194.7 162.3 195.232 162.16 195.801 162.16ZM203.53 170.126C202.923 170.126 202.377 170.019 201.892 169.804C201.416 169.58 201.038 169.281 200.758 168.908C200.478 168.525 200.329 168.101 200.31 167.634H201.962C201.99 167.961 202.144 168.236 202.424 168.46C202.713 168.675 203.073 168.782 203.502 168.782C203.95 168.782 204.295 168.698 204.538 168.53C204.79 168.353 204.916 168.129 204.916 167.858C204.916 167.569 204.776 167.354 204.496 167.214C204.225 167.074 203.791 166.92 203.194 166.752C202.615 166.593 202.144 166.439 201.78 166.29C201.416 166.141 201.099 165.912 200.828 165.604C200.567 165.296 200.436 164.89 200.436 164.386C200.436 163.975 200.557 163.602 200.8 163.266C201.043 162.921 201.388 162.65 201.836 162.454C202.293 162.258 202.816 162.16 203.404 162.16C204.281 162.16 204.986 162.384 205.518 162.832C206.059 163.271 206.349 163.873 206.386 164.638H204.79C204.762 164.293 204.622 164.017 204.37 163.812C204.118 163.607 203.777 163.504 203.348 163.504C202.928 163.504 202.606 163.583 202.382 163.742C202.158 163.901 202.046 164.111 202.046 164.372C202.046 164.577 202.121 164.75 202.27 164.89C202.419 165.03 202.601 165.142 202.816 165.226C203.031 165.301 203.348 165.399 203.768 165.52C204.328 165.669 204.785 165.823 205.14 165.982C205.504 166.131 205.817 166.355 206.078 166.654C206.339 166.953 206.475 167.349 206.484 167.844C206.484 168.283 206.363 168.675 206.12 169.02C205.877 169.365 205.532 169.636 205.084 169.832C204.645 170.028 204.127 170.126 203.53 170.126Z" fill="#8991A5"/>
</svg>
